<svg width="10" height="10" viewBox="0 0 10 10" fill="none" xmlns="http://www.w3.org/2000/svg">
<path d="M9.066 1.995C9.13766 1.92585 9.19484 1.84311 9.23419 1.75163C9.27353 1.66015 9.29427 1.56174 9.29518 1.46216C9.29609 1.36257 9.27716 1.26381 9.2395 1.17162C9.20183 1.07943 9.14618 0.995662 9.0758 0.925209C9.00541 0.854757 8.9217 0.799028 8.82954 0.761274C8.73739 0.72352 8.63864 0.704497 8.53905 0.705315C8.43947 0.706133 8.34104 0.726776 8.24952 0.766039C8.158 0.805302 8.07522 0.862399 8.006 0.933998L5 3.939L1.995 0.933998C1.92634 0.860311 1.84354 0.801209 1.75154 0.760217C1.65954 0.719225 1.56022 0.697183 1.45952 0.695406C1.35882 0.69363 1.25879 0.712154 1.1654 0.749875C1.07201 0.787596 0.987178 0.843741 0.915959 0.91496C0.84474 0.986179 0.788596 1.07101 0.750875 1.1644C0.713154 1.25779 0.694629 1.35782 0.696406 1.45852C0.698183 1.55922 0.720225 1.65854 0.761217 1.75054C0.802208 1.84254 0.861311 1.92534 0.934997 1.994L3.938 5L0.932998 8.005C0.800518 8.14717 0.728394 8.33522 0.731822 8.52952C0.735251 8.72382 0.813963 8.90921 0.951376 9.04662C1.08879 9.18403 1.27417 9.26274 1.46847 9.26617C1.66278 9.2696 1.85082 9.19748 1.993 9.065L5 6.06L8.005 9.066C8.14717 9.19848 8.33522 9.2706 8.52952 9.26717C8.72382 9.26375 8.90921 9.18503 9.04662 9.04762C9.18403 8.91021 9.26274 8.72482 9.26617 8.53052C9.2696 8.33622 9.19748 8.14817 9.065 8.006L6.062 5L9.066 1.995Z" fill="black"/>
</svg>
